#!OML:ASF F:\VICON\USERDATA\INSTALL\rory3\rory3.ASF
:FULLY-SPECIFIED
:DEGREES
61
root -0.0461872254700047 18.10904616445157 35.90829233351251 -3.35328354449131 -0.8286006928190839 -4.838979537515382
lfemur -8.473727203967886 -0.5408861287640512 -15.1334292139163
ltibia 63.820552061328485
lfoot 5.980876913316917 -11.007265934743156
ltoes -2.8945344498556955
rfemur -14.479271664745824 5.4772999653371865 30.32649671771925
rtibia 28.42995896211397
rfoot -10.99912984540532 -5.028727063691864
rtoes 8.646229504860441
lowerback 9.461028791354016 -0.42832339017516585 2.3452435531273848
upperback 0.5498549656068428 -0.17481220219547589 2.8366816908177324
thorax -4.756695908046412 -0.10595413399799725 1.563768800327161
lowerneck -15.954430852493081 -2.691928636983795 -2.6280420290989692
upperneck 21.333085311448986 -3.4544940524688608 1.4498856088842427
head 9.36904404824206 -1.6712008007296069 0.5262414655974227
lclavicle -3.082874253773718e-15 -6.067874489095717e-16
lhumerus -26.479780461753123 -2.213457522774405 84.3120127721416
lradius 28.021938571671573
lwrist 4.260604399170983
lhand -26.846992663730724 22.460120163510524
lfingers 7.1250199999999975
lthumb -0.2722897843094679 52.44348055771853
rclavicle -3.082874253773718e-15 -6.067874489095717e-16
rhumerus -31.524284524187326 -23.026389849015303 -77.63744851942049
rradius 21.75715780578679
rwrist 8.922793467535687
rhand -16.692609135832182 23.008968567082732
rfingers 7.1250199999999975
rthumb 9.532086859763792 -6.564561951372283
62
root -0.04696823377012688 18.12423869567667 36.06635221378959 -3.3267484191363392 -1.9139165709498511 -5.15371021983659
lfemur -12.996143945391092 0.7431215287934863 -14.871643299516421
ltibia 64.12088377892452
lfoot 0.3584074346174173 -6.958885074406938
ltoes -4.35196254829682
rfemur -11.286025227168455 5.713302145149923 31.44125691163378
rtibia 27.16092479069499
rfoot -13.370984930628122 -5.153783396976795
rtoes 7.780046907021401
lowerback 9.507141026648428 0.1790395418398294 3.170268848533043
upperback 0.5861031879505415 0.7148000576293221 2.607128876475596
thorax -4.72684528266031 0.3127929795265424 0.8441616041952864
lowerneck -15.928068609812247 -2.74173009820069 -2.522041164248692
upperneck 21.288884327385137 -3.5439334074904107 1.4823920205854242
head 9.367553621375656 -1.7008866024016862 0.4922731836080467
lclavicle -2.758753400979132e-15 -3.898674036607508e-16
lhumerus -27.894170876375874 -1.3966534437606295 84.21872830373337
lradius 27.331390650971223
lwrist 4.2759156816537764
lhand -27.10595107529574 22.16175711654276
lfingers 7.1250199999999975
lthumb -0.5223992277278031 52.14587779334212
rclavicle -2.758753400979132e-15 -3.898674036607509e-16
rhumerus -30.048425202142752 -20.39639591722327 -78.91094581182199
rradius 22.982564536398762
rwrist 7.285991934087837
rhand -16.824132506867638 22.128007823341513
rfingers 7.1250199999999975
rthumb 9.405197099082574 -7.390165174916383
63
root -0.03183222571198885 18.090403606712737 35.88787432127932 -3.155715885656796 -3.0033294449221897 -5.591914575387398
lfemur -16.725832651718935 1.3815899616372627 -14.59428113306037
ltibia 60.58195117773697
lfoot -2.915540215500342 -3.4918283518798487
ltoes -5.061996047252533
rfemur -8.657628485026105 5.899436839950646 32.44753023480597
rtibia 26.179697297067186
rfoot -15.49223964715395 -5.257902843996526
rtoes 7.544497403026581
lowerback 9.600085430650793 0.7011114205844715 4.064768009972049
upperback 0.5752949051187427 1.5056595120754017 2.436650207735844
thorax -4.737139423585514 0.6816182559979835 0.10721722139145762
lowerneck -16.020490398578357 -2.7665376405099598 -2.437600334616672
upperneck 21.1110552581807 -3.5814099365067964 1.4198612054007704
head 9.323110162213236 -1.714398460833388 0.44694446958845613
lclavicle -2.6854583122480567e-15 -3.409203487843884e-16
lhumerus -29.415305659684137 -0.37437351202632985 83.97484099254848
lradius 26.636540991146692
lwrist 4.673670336580697
lhand -27.551065927303217 21.5324120769575
lfingers 7.1250199999999975
lthumb -0.9522903744876113 51.512992593727034
rclavicle -2.6854583122480567e-15 -3.409203487843884e-16
rhumerus -28.70396468344532 -17.864121089055182 -79.87971199667936
rradius 24.36479382497649
rwrist 5.419556567656306
rhand -17.053302870901426 21.507190137968518
rfingers 7.1250199999999975
rthumb 9.184050612011843 -7.97217467964492
64
root -0.01302628921025517 18.020450575785137 36.10986370375459 -2.7824063758314947 -4.02187509594415 -6.252654049520068
lfemur -19.52410530425184 1.0797772560442667 -13.660572982198415
ltibia 53.04151803701788
lfoot -4.141448287534457 -0.22299141945391743
ltoes -4.80138371523789
rfemur -6.063729753968976 6.028804850262221 33.515409433626566
rtibia 25.20657023102367
rfoot -17.33948934984183 -5.5174200213057585
rtoes 7.590441268793784
lowerback 9.66573951810353 1.1769699620601957 5.089905020588335
upperback 0.543500724722128 2.251928876757589 2.3548499110735355
thorax -4.741901113074052 1.026591241275443 -0.6161030580360286
lowerneck -16.24241676216618 -2.7796508901868537 -2.357314079141408
upperneck 20.822432832885713 -3.5970492419705766 1.3468294029941217
head 9.246776463480577 -1.718908438986534 0.40764745922858026
lclavicle -2.6942993466917565e-15 -3.4718303825231954e-16
lhumerus -30.8210215933514 0.9010077172384178 83.64162589544802
lradius 25.820921558199995
lwrist 4.990471330830514
lhand -28.081539133797943 20.829637014797814
lfingers 7.1250199999999975
lthumb -1.4646082989749094 50.80470200614344
rclavicle -2.6942993466917565e-15 -3.4718303825231954e-16
rhumerus -27.33653676987166 -15.354542345504054 -80.64351246661701
rradius 25.82020424512414
rwrist 3.573225575760106
rhand -17.32397120598048 21.610615489752043
rfingers 7.1250199999999975
rthumb 8.922857098379776 -7.8495330227780045
65
root 0.0043334867999719195 17.93154077737451 36.459147473263435 -2.198627988912698 -4.999822258098117 -7.080987161212862
lfemur -21.53650885252272 -0.405977230911418 -12.057206507512326
ltibia 41.860843949693894
lfoot -4.592380525220455 3.14314320887369
ltoes -4.206019604194685
rfemur -3.0201952287220752 6.133401537520591 34.48414852036029
rtibia 23.631289987792087
rfoot -19.13327719375096 -6.0594953131521345
rtoes 7.05264585319617
lowerback 9.594801770216412 1.6493505456737518 6.10703632034895
upperback 0.491167185901979 2.9827022565379955 2.321042383174836
thorax -4.702579964697089 1.3660147765533728 -1.3237920918808572
lowerneck -16.567738368954622 -2.803660332808532 -2.2537479337953497
upperneck 20.496629731706044 -3.6341181400473874 1.3090340090216668
head 9.16914108100895 -1.7290362236646115 0.371207513040357
lclavicle -2.8981180252475664e-15 -4.834366751932501e-16
lhumerus -32.24659411681123 2.4469109680165375 83.19782725525802
lradius 24.67113626643385
lwrist 4.896729329779001
lhand -28.50317993157197 20.657145370319814
lfingers 7.1250199999999975
lthumb -1.8718077305514256 50.62848802055058
rclavicle -2.8981180252475664e-15 -4.834366751932501e-16
rhumerus -25.867912018910005 -13.093998589809804 -81.26593237084525
rradius 27.103255874696266
rwrist 2.134381429474586
rhand -17.615803263372992 22.215212164561052
rfingers 7.1250199999999975
rthumb 8.641221755699904 -7.224459011490224
66
root 0.033414104621013574 17.83452239232959 36.4090009424807 -1.4929086417467698 -5.897774543020525 -7.722380740981338
lfemur -22.506416744154716 -2.6235351038841923 -10.203077865900609
ltibia 29.726249252021695
lfoot -4.832127868224 6.296110749146533
ltoes -3.678431526526779
rfemur 0.7400447372338377 6.325149849680237 35.17792234571343
rtibia 22.237031036519934
rfoot -20.879967116906197 -6.544613996186379
rtoes 5.254475145864357
lowerback 9.385997457208294 2.1343254636641924 6.906927861151712
upperback 0.43120911989852556 3.6881902597996015 2.298901965471806
thorax -4.617605563667671 1.7009757988806964 -1.8605153310771247
lowerneck -16.88835440036405 -2.8421146910303197 -2.0855324646148246
upperneck 20.241531608588424 -3.7030907434875013 1.3313804691157107
head 9.125381488117172 -1.7494555802956075 0.3381844610223787
lclavicle -2.9206530428431747e-15 -4.985240486528869e-16
lhumerus -33.59464856544796 4.339357038134243 82.61465085493796
lradius 23.004802526187216
lwrist 4.257905758128942
lhand -28.6121150789192 21.38449038346179
lfingers 7.1250199999999975
lthumb -1.9769934722111868 51.35490901360747
rclavicle -2.9206530428431747e-15 -4.985240486528869e-16
rhumerus -24.36018256933513 -11.444302582878885 -81.6570182679137
rradius 28.01461415889805
rwrist 1.4245433313291347
rhand -17.867279251857514 22.904664986217945
rfingers 7.1250199999999975
rthumb 8.398487724208815 -6.527287393348784
67
root 0.07696213733558999 17.731876441096055 35.254720631622924 -0.9577219563011667 -6.65980102346133 -8.019375532539152
lfemur -23.120640012389288 -4.586148143219034 -9.120035681682904
ltibia 19.780028882995396
lfoot -5.022313236343113 7.859282360071841
ltoes -3.291055227733462
rfemur 4.205456305948337 6.473350518595051 35.16870465879269
rtibia 21.707674654933086
rfoot -22.3182746140861 -6.521136491593659
rtoes 1.9189126019126415
lowerback 9.109496121642685 2.5158793729408995 7.156472541349193
upperback 0.3802797792007564 4.190430202875946 2.209590406984851
thorax -4.528945898913626 1.9486196457437233 -2.1984386380366248
lowerneck -17.07946603883933 -2.904689441332505 -1.8944076418436466
upperneck 20.09991195675074 -3.817122041856134 1.3643557654400518
head 9.10737931641756 -1.7874343630831815 0.2967867921294973
lclavicle -3.2546203656600403e-15 -7.212135806552978e-16
lhumerus -34.932093424677475 6.342426366726252 81.7981954250696
lradius 20.71312978587177
lwrist 2.8704721539594527
lhand -28.358209853457502 22.538697928855335
lfingers 7.1250199999999975
lthumb -1.731753126159962 52.510237049523155
rclavicle -3.2546203656600403e-15 -7.212135806552978e-16
rhumerus -23.20743910780194 -10.910058244459883 -81.84408604124856
rradius 28.434533780106978
rwrist 1.2319631926224446
rhand -18.085021338294833 23.370172914178816
rfingers 7.1250199999999975
rthumb 8.188293065218515 -6.098725781072655
68
root 0.14497292718663657 17.648036236040518 34.63579281240969 -0.8340822126714855 -6.9349994283544 -7.756087332756422
lfemur -23.198299175992304 -5.281624428974398 -9.207405972978592
ltibia 16.002828114385192
lfoot -4.38191213254662 7.009358427700722
ltoes -2.4037345469951115
rfemur 7.119340329678062 6.43223216611028 34.59738252765978
rtibia 23.6955701725552
rfoot -21.79027793769101 -5.206428404392701
rtoes -1.7761633368399488
lowerback 8.902583823507 2.773403841820495 7.000990572165008
upperback 0.3588041480222481 4.489364884329495 2.0667739291265983
thorax -4.465342492669833 2.103131570611791 -2.255445348959378
lowerneck -17.077392466214743 -2.986713108432536 -1.7235898410983879
upperneck 20.106662823098837 -3.957640881707627 1.419628503670158
head 9.11761010559318 -1.8382666176758027 0.2657493985234886
lclavicle -3.189460840556797e-15 -6.777008537837339e-16
lhumerus -36.03078221861294 8.472765304056555 80.84739126681673
lradius 18.414169955763718
lwrist 0.9034706711105951
lhand -27.693348829079948 23.533615585006622
lfingers 7.1250199999999975
lthumb -1.0896270815850828 53.508352693420036
rclavicle -3.189460840556797e-15 -6.777008537837339e-16
rhumerus -22.607205380487645 -11.229993703064672 -81.78217506047386
rradius 28.61380342443402
rwrist 1.403477343348098
rhand -18.22206885187889 23.629779314572254
rfingers 7.1250199999999975
rthumb 8.05599428046794 -5.923320892740612
